<svg xmlns="http://www.w3.org/2000/svg" xmlns:xlink="http://www.w3.org/1999/xlink" width="598.654" height="491.624" viewBox="0 0 598.654 491.624">
  <defs>
    <clipPath id="clip-path">
      <rect id="Rectangle_2776" data-name="Rectangle 2776" width="34.425" height="33.349" fill="none"/>
    </clipPath>
    <clipPath id="clip-path-2">
      <rect id="Rectangle_2777" data-name="Rectangle 2777" width="28.7" height="28.121" fill="none"/>
    </clipPath>
    <clipPath id="clip-path-3">
      <rect id="Rectangle_2778" data-name="Rectangle 2778" width="54.734" height="83.678" fill="none"/>
    </clipPath>
    <clipPath id="clip-path-4">
      <rect id="Rectangle_2779" data-name="Rectangle 2779" width="58.728" height="78.721" fill="none"/>
    </clipPath>
    <clipPath id="clip-path-5">
      <rect id="Rectangle_2780" data-name="Rectangle 2780" width="48.593" height="78.194" fill="none"/>
    </clipPath>
    <clipPath id="clip-path-6">
      <rect id="Rectangle_2811" data-name="Rectangle 2811" width="139.625" height="292.976" fill="none"/>
    </clipPath>
    <clipPath id="clip-path-7">
      <rect id="Rectangle_2812" data-name="Rectangle 2812" width="139.625" height="81.301" fill="none"/>
    </clipPath>
    <clipPath id="clip-path-8">
      <rect id="Rectangle_2813" data-name="Rectangle 2813" width="142.546" height="91.166" fill="none"/>
    </clipPath>
    <clipPath id="clip-path-9">
      <rect id="Rectangle_2814" data-name="Rectangle 2814" width="25.264" height="68.715" fill="none"/>
    </clipPath>
    <clipPath id="clip-path-10">
      <rect id="Rectangle_2815" data-name="Rectangle 2815" width="52.356" height="136.058" fill="none"/>
    </clipPath>
    <clipPath id="clip-path-11">
      <rect id="Rectangle_2816" data-name="Rectangle 2816" width="149.21" height="9.618" fill="none"/>
    </clipPath>
    <clipPath id="clip-path-12">
      <rect id="Rectangle_2817" data-name="Rectangle 2817" width="60.025" height="84.188" fill="none"/>
    </clipPath>
    <clipPath id="clip-path-13">
      <rect id="Rectangle_2818" data-name="Rectangle 2818" width="24.037" height="55.793" fill="none"/>
    </clipPath>
    <clipPath id="clip-path-14">
      <rect id="Rectangle_2819" data-name="Rectangle 2819" width="241.286" height="219.244" fill="#0073ff"/>
    </clipPath>
    <clipPath id="clip-path-15">
      <rect id="Rectangle_2820" data-name="Rectangle 2820" width="24.462" height="30.347" fill="#f6c8b6"/>
    </clipPath>
    <clipPath id="clip-path-16">
      <rect id="Rectangle_2821" data-name="Rectangle 2821" width="43.101" height="37.266" fill="none"/>
    </clipPath>
    <clipPath id="clip-path-17">
      <rect id="Rectangle_2822" data-name="Rectangle 2822" width="160.432" height="147.148" fill="none"/>
    </clipPath>
    <clipPath id="clip-path-18">
      <rect id="Rectangle_2823" data-name="Rectangle 2823" width="21.609" height="29.014" fill="#f6c8b6"/>
    </clipPath>
    <clipPath id="clip-path-19">
      <rect id="Rectangle_2824" data-name="Rectangle 2824" width="250.708" height="225.948" fill="#0073ff"/>
    </clipPath>
    <clipPath id="clip-path-20">
      <rect id="Rectangle_2825" data-name="Rectangle 2825" width="43.726" height="26.79" fill="none"/>
    </clipPath>
    <clipPath id="clip-path-21">
      <rect id="Rectangle_2826" data-name="Rectangle 2826" width="108.732" height="130.694" fill="none"/>
    </clipPath>
    <clipPath id="clip-path-22">
      <rect id="Rectangle_2827" data-name="Rectangle 2827" width="13.051" height="20.007" fill="none"/>
    </clipPath>
    <clipPath id="clip-path-23">
      <rect id="Rectangle_2828" data-name="Rectangle 2828" width="101.95" height="77.485" fill="none"/>
    </clipPath>
    <clipPath id="clip-path-24">
      <rect id="Rectangle_2829" data-name="Rectangle 2829" width="79.226" height="95.828" fill="none"/>
    </clipPath>
    <clipPath id="clip-path-25">
      <rect id="Rectangle_2830" data-name="Rectangle 2830" width="102.046" height="6.247" fill="none"/>
    </clipPath>
    <clipPath id="clip-path-26">
      <rect id="Rectangle_2831" data-name="Rectangle 2831" width="69.577" height="6.247" fill="none"/>
    </clipPath>
    <clipPath id="clip-path-27">
      <rect id="Rectangle_2832" data-name="Rectangle 2832" width="122.195" height="78.573" fill="none"/>
    </clipPath>
    <clipPath id="clip-path-28">
      <rect id="Rectangle_2833" data-name="Rectangle 2833" width="116.571" height="74.535" fill="none"/>
    </clipPath>
    <clipPath id="clip-path-29">
      <rect id="Rectangle_2834" data-name="Rectangle 2834" width="71.691" height="71.03" fill="none"/>
    </clipPath>
    <clipPath id="clip-path-30">
      <rect id="Rectangle_2835" data-name="Rectangle 2835" width="28.702" height="70.051" fill="none"/>
    </clipPath>
    <clipPath id="clip-path-31">
      <rect id="Rectangle_2836" data-name="Rectangle 2836" width="139.629" height="292.991" fill="none"/>
    </clipPath>
    <clipPath id="clip-path-32">
      <rect id="Rectangle_2838" data-name="Rectangle 2838" width="352.318" height="7.465" fill="none"/>
    </clipPath>
  </defs>
  <g id="Group_2803" data-name="Group 2803" transform="translate(-443.83 -324.105)">
    <path id="Path_806" data-name="Path 806" d="M401.1,325.194s-17.365-20.668-28.478-11.028-5.492,30.086,7.326,30.745a32.172,32.172,0,0,0,21.152-6.462Z" transform="translate(541.834 386.781)" fill="#407bff"/>
    <g id="Group_2655" data-name="Group 2655" transform="translate(908.512 698.385)" opacity="0.2" style="mix-blend-mode: normal;isolation: isolate">
      <g id="Group_2654" data-name="Group 2654" transform="translate(-0.001 0)">
        <g id="Group_2653" data-name="Group 2653" clip-path="url(#clip-path)">
          <path id="Path_807" data-name="Path 807" d="M401.1,325.194s-17.365-20.668-28.478-11.028-5.492,30.086,7.326,30.745a32.172,32.172,0,0,0,21.152-6.462Z" transform="translate(-366.677 -311.604)" fill="#fff"/>
        </g>
      </g>
    </g>
    <path id="Path_808" data-name="Path 808" d="M413.68,301.455s14.587-15.279,23.616-12.688,8.09,39.094-19.918,24.316Z" transform="translate(600.104 358.102)" fill="#407bff"/>
    <g id="Group_2658" data-name="Group 2658" transform="translate(1013.783 646.574)" opacity="0.3" style="mix-blend-mode: normal;isolation: isolate">
      <g id="Group_2657" data-name="Group 2657" transform="translate(0.001 0)">
        <g id="Group_2656" data-name="Group 2656" clip-path="url(#clip-path-2)">
          <path id="Path_809" data-name="Path 809" d="M413.68,301.455s14.587-15.279,23.616-12.688,8.09,39.094-19.918,24.316Z" transform="translate(-413.68 -288.473)" fill="#fff"/>
        </g>
      </g>
    </g>
    <path id="Path_810" data-name="Path 810" d="M403.844,389.774s-47.926-65.565-9.031-78.849,45.845,52.752,34.731,71.135-25.7,7.714-25.7,7.714" transform="translate(557.846 383.768)" fill="#407bff"/>
    <path id="Path_811" data-name="Path 811" d="M427.419,324.614s29.73-69.028-14.307-71.113-48.835,68.445,1.837,78.676Z" transform="translate(556.498 314.693)" fill="#407bff"/>
    <g id="Group_2661" data-name="Group 2661" transform="translate(937.438 692.943)" opacity="0.3" style="mix-blend-mode: normal;isolation: isolate">
      <g id="Group_2660" data-name="Group 2660" transform="translate(0.001 0)">
        <g id="Group_2659" data-name="Group 2659" clip-path="url(#clip-path-3)">
          <path id="Path_812" data-name="Path 812" d="M403.844,389.774s-47.926-65.565-9.031-78.849,45.845,52.752,34.731,71.135-25.7,7.714-25.7,7.714" transform="translate(-379.593 -309.176)" fill="#fff"/>
        </g>
      </g>
    </g>
    <g id="Group_2664" data-name="Group 2664" transform="translate(935.002 568.15)" opacity="0.3" style="mix-blend-mode: normal;isolation: isolate">
      <g id="Group_2663" data-name="Group 2663" transform="translate(0 0)">
        <g id="Group_2662" data-name="Group 2662" clip-path="url(#clip-path-4)">
          <path id="Path_813" data-name="Path 813" d="M427.419,324.614s29.73-69.028-14.307-71.113-48.835,68.445,1.837,78.676Z" transform="translate(-378.504 -253.456)" fill="#fff"/>
        </g>
      </g>
    </g>
    <path id="Path_814" data-name="Path 814" d="M397.716,347.056s-14.458-60.949,13.326-65.812,55.212,50.205-2.262,77.89c0,0-9.859-6.114-11.064-12.079" transform="translate(575.652 348.768)" fill="#407bff"/>
    <g id="Group_2667" data-name="Group 2667" transform="translate(969.609 629.711)" opacity="0.2" style="mix-blend-mode: normal;isolation: isolate">
      <g id="Group_2666" data-name="Group 2666" transform="translate(-0.001 -0.001)">
        <g id="Group_2665" data-name="Group 2665" clip-path="url(#clip-path-5)">
          <path id="Path_815" data-name="Path 815" d="M397.716,347.056s-14.458-60.949,13.326-65.812,55.212,50.205-2.262,77.89c0,0-9.859-6.114-11.064-12.079" transform="translate(-393.956 -280.943)" fill="#fff"/>
        </g>
      </g>
    </g>
    <path id="Path_816" data-name="Path 816" d="M375.017,341.01h80.467l-6.719,51.484H381.737Z" transform="translate(552.174 423.234)" fill="#263238"/>
    <path id="Path_817" data-name="Path 817" d="M405.822,313.612a56.316,56.316,0,0,1-11.131-10.934,55.444,55.444,0,0,1-7.891-13.613,40.98,40.98,0,0,1-2.867-15.521c-.087-5.324,1.536-10.468,3.6-15.192q-.41,1.918-.873,3.785l-.455,1.868c-.087.634-.128,1.279-.195,1.915-.134,1.27-.322,2.529-.43,3.792l.078,3.807a47.512,47.512,0,0,0,3.23,14.733,70.484,70.484,0,0,0,7.189,13.414,68.783,68.783,0,0,0,4.616,6.148,74.167,74.167,0,0,0,5.131,5.8" transform="translate(563.223 320.764)" fill="#407bff"/>
    <path id="Path_818" data-name="Path 818" d="M388.994,256.576a28.019,28.019,0,0,1,7.205,2.464A33.127,33.127,0,0,1,411.5,275.9a44.524,44.524,0,0,1,3.075,15.049c.04,2.551-.152,5.1-.249,7.631-.437,2.511-.8,5.017-1.3,7.485,0-2.54.139-5.044.2-7.541-.128-2.5-.132-4.995-.374-7.46-.468-2.437-.49-4.939-1.243-7.295-.322-1.185-.517-2.408-.907-3.568l-1.274-3.442a36.31,36.31,0,0,0-20.44-20.186" transform="translate(569.5 318.561)" fill="#407bff"/>
    <path id="Path_819" data-name="Path 819" d="M408.9,283.025a26.187,26.187,0,0,1,14.592,14.014,32.088,32.088,0,0,1,2.739,10.076,13.268,13.268,0,0,1,.141,2.643,25.152,25.152,0,0,1-.069,2.668,30.516,30.516,0,0,1-1.05,5.185,43.57,43.57,0,0,1-4.22,9.546,66.734,66.734,0,0,1-6.038,8.388A85.355,85.355,0,0,1,400.1,349.6c2.446-2.372,4.842-4.777,7.073-7.331a93.884,93.884,0,0,0,6.466-7.792c4-5.382,7.642-11.149,9.458-17.488a28.358,28.358,0,0,0,1.026-4.784,21.859,21.859,0,0,0,.083-2.423,13.533,13.533,0,0,0-.083-2.441,34.057,34.057,0,0,0-2.213-9.626,27.672,27.672,0,0,0-5.149-8.448,25.923,25.923,0,0,0-7.866-6.238" transform="translate(583.273 351.35)" fill="#407bff"/>
    <path id="Path_820" data-name="Path 820" d="M403.132,285.227a55.1,55.1,0,0,1,3.082,13.958,33.473,33.473,0,0,1-.049,7.272,17.2,17.2,0,0,1-2.289,7.142c-2.643,3.754-3.532,8.271-4.045,12.912a60.37,60.37,0,0,0-.329,7.012c-.06,2.356.043,4.715.157,7.091a53.613,53.613,0,0,1-1.545-14.213,34.517,34.517,0,0,1,.889-7.225,21.39,21.39,0,0,1,1.207-3.523,27.447,27.447,0,0,1,1.769-3.243,15.535,15.535,0,0,0,2.092-6.244,42.136,42.136,0,0,0,.432-6.9,65.29,65.29,0,0,0-.448-7.01c-.2-2.349-.56-4.683-.923-7.033" transform="translate(580.787 354.08)" fill="#407bff"/>
    <path id="Path_821" data-name="Path 821" d="M391.616,312.748a6.5,6.5,0,0,1,2.99,2.273,22.108,22.108,0,0,1,2.135,3.149,54.307,54.307,0,0,1,3.021,6.927,109.483,109.483,0,0,1,3.978,14.486c1,4.9,1.825,9.828,2.365,14.8a100.786,100.786,0,0,1,.782,14.954c-.354-2.473-.73-4.925-1.2-7.369q-.595-3.675-1.292-7.333c-.934-4.874-1.812-9.752-2.849-14.592q-1.478-7.273-3.418-14.417a56.593,56.593,0,0,0-2.372-6.977,21.412,21.412,0,0,0-1.633-3.279,7.1,7.1,0,0,0-2.511-2.621" transform="translate(572.752 388.199)" fill="#407bff"/>
    <path id="Path_822" data-name="Path 822" d="M387.938,313.693a63.125,63.125,0,0,0-2.258,13.591,52.291,52.291,0,0,0,.99,13.544,45.383,45.383,0,0,0,4.518,12.76,65.957,65.957,0,0,0,7.689,11.425c-.867-.768-1.729-1.557-2.571-2.367a24.563,24.563,0,0,1-2.47-2.5,38.592,38.592,0,0,1-4.17-5.7,40.651,40.651,0,0,1-3.21-6.338c-.457-1.1-.737-2.255-1.113-3.382a23.208,23.208,0,0,1-.865-3.456,43.424,43.424,0,0,1-.531-14.142,41.279,41.279,0,0,1,3.991-13.436" transform="translate(562.813 389.371)" fill="#407bff"/>
    <path id="Path_823" data-name="Path 823" d="M418.731,301.115a60.431,60.431,0,0,0,7.131-2.287,17.951,17.951,0,0,0,3.109-1.678,26.934,26.934,0,0,0,2.932-2.4,7.141,7.141,0,0,1-1.76,3.7,9.56,9.56,0,0,1-3.4,2.437,11.707,11.707,0,0,1-4.018.882,9.274,9.274,0,0,1-3.993-.654" transform="translate(606.365 365.887)" fill="#407bff"/>
    <path id="Path_824" data-name="Path 824" d="M417.4,296.091a9.629,9.629,0,0,1,2.65-3.131A10.732,10.732,0,0,1,423.765,291a8.115,8.115,0,0,1,4.347-.043,6.04,6.04,0,0,1,3.355,2.533,13.7,13.7,0,0,0-3.664-.813,11.794,11.794,0,0,0-3.425.475,23.519,23.519,0,0,0-3.411,1.29Z" transform="translate(604.719 360.836)" fill="#407bff"/>
    <path id="Path_825" data-name="Path 825" d="M388.82,324.522a79.846,79.846,0,0,0-8.827-6.37,12.345,12.345,0,0,0-4.728-1.754,9.065,9.065,0,0,0-5.08.97,6.758,6.758,0,0,1,5.129-2.717,10.476,10.476,0,0,1,5.776,1.55,19.39,19.39,0,0,1,4.506,3.626,18.348,18.348,0,0,1,3.223,4.694" transform="translate(546.182 390.537)" fill="#407bff"/>
    <path id="Path_826" data-name="Path 826" d="M391.147,327.658a24.7,24.7,0,0,1-6.524,1.44,27.118,27.118,0,0,1-6.753-.211,14.349,14.349,0,0,1-6.421-2.6,7.532,7.532,0,0,1-3.14-5.982,9.222,9.222,0,0,0,4.11,4.526,17.943,17.943,0,0,0,5.832,1.85,110.543,110.543,0,0,0,12.9.974" transform="translate(543.854 397.568)" fill="#407bff"/>
    <path id="Path_890" data-name="Path 890" d="M208.714,524.34H339.062a2.561,2.561,0,0,0,2.56-2.562v-8.314a2.561,2.561,0,0,0-2.56-2.562H215.433V244.788H336.952a4.672,4.672,0,0,0,4.67-4.672V231.35H208.714a6.717,6.717,0,0,0-6.719,6.719V517.62a6.717,6.717,0,0,0,6.719,6.719" transform="translate(523.57 287.289)" fill="#263238"/>
    <g id="Group_2723" data-name="Group 2723" transform="translate(725.561 518.645)" opacity="0.3" style="mix-blend-mode: normal;isolation: isolate">
      <g id="Group_2722" data-name="Group 2722" transform="translate(0 -0.001)">
        <g id="Group_2721" data-name="Group 2721" clip-path="url(#clip-path-6)">
          <path id="Path_891" data-name="Path 891" d="M201.993,238.071V517.609a6.71,6.71,0,0,0,6.719,6.719H339.064a2.552,2.552,0,0,0,2.553-2.553v-8.309a2.571,2.571,0,0,0-2.553-2.576H215.431V244.79H336.959a4.674,4.674,0,0,0,4.659-4.681v-8.757H208.712a6.71,6.71,0,0,0-6.719,6.719" transform="translate(-201.993 -231.352)" fill="#fff"/>
        </g>
      </g>
    </g>
    <g id="Group_2726" data-name="Group 2726" transform="translate(725.561 518.645)" opacity="0.2">
      <g id="Group_2725" data-name="Group 2725" transform="translate(0 -0.001)">
        <g id="Group_2724" data-name="Group 2724" clip-path="url(#clip-path-7)">
          <path id="Path_892" data-name="Path 892" d="M201.993,238.071v71.29q6.719,1.713,13.438,3.292V244.79H336.959a4.674,4.674,0,0,0,4.659-4.681v-8.757H208.712a6.71,6.71,0,0,0-6.719,6.719" transform="translate(-201.993 -231.352)"/>
        </g>
      </g>
    </g>
    <path id="Path_893" data-name="Path 893" d="M101.356,386.855l53.453-4.659V312H173.6v70.179l53.644,4.679a9.232,9.232,0,0,1,8.327,9.187v7.12H93.026v-7.12a9.234,9.234,0,0,1,8.33-9.187" transform="translate(388.479 387.268)" fill="#263238"/>
    <g id="Group_2729" data-name="Group 2729" transform="translate(481.506 699.264)" opacity="0.1" style="mix-blend-mode: normal;isolation: isolate">
      <g id="Group_2728" data-name="Group 2728" transform="translate(0 0)">
        <g id="Group_2727" data-name="Group 2727" clip-path="url(#clip-path-8)">
          <path id="Path_894" data-name="Path 894" d="M101.356,386.855l53.453-4.659V312H173.6v70.179l53.644,4.679a9.232,9.232,0,0,1,8.327,9.187v7.12H93.026v-7.12a9.234,9.234,0,0,1,8.33-9.187" transform="translate(-93.028 -311.996)" fill="#fff"/>
        </g>
      </g>
    </g>
    <path id="Path_895" data-name="Path 895" d="M148.945,363.445a12.286,12.286,0,1,0,12.285-12.287,12.286,12.286,0,0,0-12.285,12.287" transform="translate(457.803 435.814)" fill="#263238"/>
    <path id="Path_896" data-name="Path 896" d="M114.354,363.445a12.286,12.286,0,1,1-12.287-12.287,12.286,12.286,0,0,1,12.287,12.287" transform="translate(384.455 435.814)" fill="#263238"/>
    <path id="Path_897" data-name="Path 897" d="M127.484,356.426h8.627a8.319,8.319,0,0,0,8.318-8.318v-60.4H119.166v60.4a8.319,8.319,0,0,0,8.318,8.318" transform="translate(420.885 357.16)" fill="#263238"/>
    <g id="Group_2732" data-name="Group 2732" transform="translate(540.051 644.871)" opacity="0.2" style="mix-blend-mode: normal;isolation: isolate">
      <g id="Group_2731" data-name="Group 2731" transform="translate(0.001 0)">
        <g id="Group_2730" data-name="Group 2730" clip-path="url(#clip-path-9)">
          <path id="Path_898" data-name="Path 898" d="M127.484,356.426h8.627a8.319,8.319,0,0,0,8.318-8.318v-60.4H119.166v60.4a8.319,8.319,0,0,0,8.318,8.318" transform="translate(-119.166 -287.711)" fill="#fff"/>
        </g>
      </g>
    </g>
    <path id="Path_899" data-name="Path 899" d="M111.995,225.709s5.79,116.075,30.787,136.06H116.046S92.2,322.225,90.426,225.709Z" transform="translate(385.254 280.295)" fill="#263238"/>
    <g id="Group_2735" data-name="Group 2735" transform="translate(475.68 506.004)" opacity="0.1" style="mix-blend-mode: normal;isolation: isolate">
      <g id="Group_2734" data-name="Group 2734" transform="translate(0.001 0)">
        <g id="Group_2733" data-name="Group 2733" clip-path="url(#clip-path-10)">
          <path id="Path_900" data-name="Path 900" d="M111.995,225.709s5.79,116.075,30.787,136.06H116.046S92.2,322.225,90.426,225.709Z" transform="translate(-90.426 -225.709)" fill="#fff"/>
        </g>
      </g>
    </g>
    <path id="Path_901" data-name="Path 901" d="M223.189,282.162H104.656a10.063,10.063,0,0,0-10.063,10.063V301.4H233.252v-9.174a10.063,10.063,0,0,0-10.063-10.063" transform="translate(390.422 350.279)" fill="#407bff"/>
    <path id="Path_902" data-name="Path 902" d="M237.4,286.457H96.286a4.049,4.049,0,0,0-4.049,4.047v1.523a4.049,4.049,0,0,0,4.049,4.047H237.4a4.047,4.047,0,0,0,4.047-4.047V290.5a4.047,4.047,0,0,0-4.047-4.047" transform="translate(387.5 355.605)" fill="#263238"/>
    <g id="Group_2738" data-name="Group 2738" transform="translate(479.738 642.063)" opacity="0.6" style="mix-blend-mode: normal;isolation: isolate">
      <g id="Group_2737" data-name="Group 2737" transform="translate(0 -0.001)">
        <g id="Group_2736" data-name="Group 2736" clip-path="url(#clip-path-11)">
          <path id="Path_903" data-name="Path 903" d="M237.4,286.457H96.286a4.049,4.049,0,0,0-4.049,4.047v1.523a4.049,4.049,0,0,0,4.049,4.047H237.4a4.047,4.047,0,0,0,4.047-4.047V290.5a4.047,4.047,0,0,0-4.047-4.047" transform="translate(-92.238 -286.456)" fill="#fff"/>
        </g>
      </g>
    </g>
    <path id="Path_904" data-name="Path 904" d="M103.366,275.206H146.2c12.547,0,21.609-11.275,20.238-25.181l-1.828-18.565c-1.368-13.906-12.65-25.179-25.2-25.179H96.58c-12.547,0-21.607,11.272-20.238,25.181l1.828,18.563c1.368,13.906,12.65,25.181,25.2,25.181" transform="translate(367.625 256.209)" fill="#0073ff"/>
    <path id="Path_905" data-name="Path 905" d="M165.065,192.341l2.058,6.309q1.082,3.239,2.264,6.441c1.55,4.271,3.2,8.48,4.932,12.547a115.789,115.789,0,0,0,5.658,11.492,37.706,37.706,0,0,0,6.121,8.291c1.131,1.263,4.54,2.809,8.415,3.834a96.673,96.673,0,0,0,12.764,2.325c8.952,1.131,18.523,1.561,27.813,1.953l1.66,12.529a144.791,144.791,0,0,1-30.088,4.78,93.636,93.636,0,0,1-16.079-.508,56.734,56.734,0,0,1-8.78-1.83,33.5,33.5,0,0,1-4.75-1.805,29.682,29.682,0,0,1-4.892-2.84,52.818,52.818,0,0,1-12.724-13.57,107.472,107.472,0,0,1-8.076-14.036,154.585,154.585,0,0,1-6.11-14.271q-1.32-3.612-2.524-7.252c-.829-2.47-1.516-4.784-2.244-7.541Z" transform="translate(447.313 238.93)" fill="#ffd7c8"/>
    <path id="Path_906" data-name="Path 906" d="M152.941,187.067c7.062,2.419,13.485,12.574,31.206,53.254,0,0,2.88,4.986,17.279,8.088l-1.312,22.863s-20.561-.9-25.336-4.206S141.4,216.732,141.4,216.732Z" transform="translate(448.443 232.391)" fill="#263238"/>
    <g id="Group_2741" data-name="Group 2741" transform="translate(589.846 419.463)" opacity="0.2" style="mix-blend-mode: normal;isolation: isolate">
      <g id="Group_2740" data-name="Group 2740" transform="translate(-0.001 0)">
        <g id="Group_2739" data-name="Group 2739" clip-path="url(#clip-path-12)">
          <path id="Path_907" data-name="Path 907" d="M201.423,248.415,200.1,271.26s-16.484-.717-23.36-3.248a9.02,9.02,0,0,1-1.971-.941c-2.755-1.926-13.506-18.478-22.061-32.1-6.249-9.9-11.311-18.254-11.311-18.254l11.535-29.654c7.055,2.419,13.483,12.565,31.222,53.238,0,0,2.867,4.995,17.268,8.108" transform="translate(-141.398 -187.069)" fill="#fff"/>
        </g>
      </g>
    </g>
    <g id="Group_2744" data-name="Group 2744" transform="translate(601.156 444.611)" opacity="0.2" style="mix-blend-mode: normal;isolation: isolate">
      <g id="Group_2743" data-name="Group 2743" transform="translate(0 0)">
        <g id="Group_2742" data-name="Group 2742" clip-path="url(#clip-path-13)">
          <path id="Path_908" data-name="Path 908" d="M170.48,254.09a9.02,9.02,0,0,1-1.971-.941c-2.755-1.926-13.506-18.478-22.061-32.1a226.464,226.464,0,0,1,7.884-22.755s16.462,32.856,16.148,55.791" transform="translate(-146.448 -198.297)"/>
        </g>
      </g>
    </g>
    <path id="Path_909" data-name="Path 909" d="M181.9,219.808l16.057-5.794-1.964,21.512s-14.74,1.879-16.552-5.875Z" transform="translate(495.609 265.797)" fill="#ffd7c8"/>
    <path id="Path_910" data-name="Path 910" d="M202.1,218.367l-2.45,17.707-12.816-.546,1.967-21.512Z" transform="translate(504.771 265.799)" fill="#ffd7c8"/>
    <path id="Path_911" data-name="Path 911" d="M169.9,214.015l8.193,2.461-2.99,22.225-8.2,1.418Z" transform="translate(480.076 265.799)" fill="#263238"/>
    <path id="Path_912" data-name="Path 912" d="M162.23,250.142s108.371,42.745,133.579,60.62,88.767,138.365,88.767,138.365L358.3,469.369s-75.79-110.05-85.04-117.515-129.976-44.485-129.976-44.485Z" transform="translate(450.787 310.586)" fill="#407bff"/>
    <g id="Group_2747" data-name="Group 2747" transform="translate(594.078 560.721)" opacity="0.4" style="mix-blend-mode: normal;isolation: isolate">
      <g id="Group_2746" data-name="Group 2746" transform="translate(-0.001 0)">
        <g id="Group_2745" data-name="Group 2745" clip-path="url(#clip-path-14)">
          <path id="Path_913" data-name="Path 913" d="M384.574,449.137,358.3,469.384s-17.694-25.689-37.023-53.081c-20.673-29.318-43.227-60.584-48.02-64.436-6.764-5.465-73.127-26.742-108.313-37.761-12.946-4.076-21.658-6.742-21.658-6.742l18.948-57.225S270.594,292.9,295.813,310.768c25.2,17.873,88.76,138.369,88.76,138.369" transform="translate(-143.288 -250.139)" fill="#0073ff"/>
        </g>
      </g>
    </g>
    <path id="Path_914" data-name="Path 914" d="M264.595,382.988l12.648-12.719-20.7-32L243.922,350.99Z" transform="translate(575.549 419.838)" fill="#ffd7c8"/>
    <g id="Group_2750" data-name="Group 2750" transform="translate(819.471 758.125)" style="mix-blend-mode: normal;isolation: isolate">
      <g id="Group_2749" data-name="Group 2749" transform="translate(0 -0.001)">
        <g id="Group_2748" data-name="Group 2748" clip-path="url(#clip-path-15)">
          <path id="Path_915" data-name="Path 915" d="M243.922,350.981l12.632-12.7,11.828,18.292L255.3,368.623Z" transform="translate(-243.922 -338.277)" fill="#f6c8b6"/>
        </g>
      </g>
    </g>
    <path id="Path_916" data-name="Path 916" d="M261.45,356.672c.049.011.085.056.137.052a.249.249,0,0,0,.114-.1,22,22,0,0,0,4.271-2.105,4.8,4.8,0,0,0,2.3-2.607,2.233,2.233,0,0,0-.871-2.224,1.58,1.58,0,0,0-1.46-.452c-1.232.28-2.448,2.04-3.364,3.722.043-1.76-.24-3.581-1.039-4.367a1.573,1.573,0,0,0-1.937-.235,2.05,2.05,0,0,0-1.109,1.415c-.506,2.428,2.748,6.325,2.909,6.547l.208-.237,0,0-.2.255c.013.013-.17.251-.157.262a.354.354,0,0,0,.186.072m.112-1.662c-.065.141-.116.264-.168.385-.979-1.389-2.446-3.832-2.13-5.272a1.211,1.211,0,0,1,.529-.813l.179-.1c.533-.275.826-.119.992.063.818.9,1.008,3.769.6,5.738m.744.549c.992-2.258,2.632-5.165,3.861-5.438a.759.759,0,0,1,.714.224,1.541,1.541,0,0,1,.582,1.4c-.246,1.156-2.143,2.551-5.158,3.812" transform="translate(593.549 432.049)" fill="#407bff"/>
    <path id="Path_917" data-name="Path 917" d="M268.274,354.946l-16.708,11.2a1.271,1.271,0,0,0-.426,1.747l.011.018,8.058,13.779a3.167,3.167,0,0,0,4.363.887c5.767-4,8.321-6.2,15.633-11.192,4.5-3.037,13.694-8.616,19.2-13.738s.293-10.426-2.488-8.742c-6.616,3.964-18.1,5.657-24.5,5.178a5.018,5.018,0,0,0-3.138.86" transform="translate(584.266 432.631)" fill="#263238"/>
    <path id="Path_918" data-name="Path 918" d="M245.512,372.584l32.812-21.842-7.559-15.425-35.542,24.661Z" transform="translate(564.764 416.18)" fill="#407bff"/>
    <g id="Group_2753" data-name="Group 2753" transform="translate(799.986 751.496)" opacity="0.2">
      <g id="Group_2752" data-name="Group 2752" transform="translate(0 0)">
        <g id="Group_2751" data-name="Group 2751" clip-path="url(#clip-path-16)">
          <path id="Path_919" data-name="Path 919" d="M245.512,372.584l32.812-21.842-7.559-15.425-35.542,24.661Z" transform="translate(-235.223 -335.318)" fill="#fff"/>
        </g>
      </g>
    </g>
    <g id="Group_2756" data-name="Group 2756" transform="translate(611.637 579.734)" opacity="0.2" style="mix-blend-mode: normal;isolation: isolate">
      <g id="Group_2755" data-name="Group 2755" transform="translate(0.001 0)">
        <g id="Group_2754" data-name="Group 2754" clip-path="url(#clip-path-17)">
          <path id="Path_920" data-name="Path 920" d="M311.56,405.778c-20.673-29.318-43.227-60.584-48.02-64.436-6.764-5.465-73.127-26.742-108.313-37.761l-4.1-42.667,12.856-2.284,1.456,3.27s80.317,18.209,103,29.587c14.648,7.346,34.29,79.2,43.115,114.292" transform="translate(-151.128 -258.629)"/>
        </g>
      </g>
    </g>
    <path id="Path_921" data-name="Path 921" d="M221.147,358.538c.043.029.063.083.112.1a.265.265,0,0,0,.141-.06,21.954,21.954,0,0,0,4.728-.569,4.807,4.807,0,0,0,3.039-1.7,2.233,2.233,0,0,0-.085-2.388,1.586,1.586,0,0,0-1.227-.912c-1.259-.143-2.988,1.115-4.41,2.4.625-1.648.961-3.46.468-4.466a1.577,1.577,0,0,0-1.751-.865,2.056,2.056,0,0,0-1.516.97c-1.281,2.121.5,6.876.578,7.14l.275-.155,0,0-.271.177c.009.016-.244.177-.235.193a.355.355,0,0,0,.152.13m.656-1.53c-.107.112-.2.211-.287.307-.461-1.635-1.037-4.426-.26-5.68a1.208,1.208,0,0,1,.766-.591l.2-.036c.6-.083.82.161.916.388.473,1.12-.3,3.89-1.337,5.613m.52.764c1.684-1.8,4.195-4,5.445-3.85a.753.753,0,0,1,.6.448,1.541,1.541,0,0,1,.083,1.514c-.616,1.012-2.869,1.7-6.13,1.888" transform="translate(546.119 434.43)" fill="#407bff"/>
    <path id="Path_922" data-name="Path 922" d="M217.569,383.208l16.146-7.817-9.6-38.487-16.117,7.826Z" transform="translate(531.008 418.145)" fill="#ffd7c8"/>
    <g id="Group_2759" data-name="Group 2759" transform="translate(739 755.068)" style="mix-blend-mode: normal;isolation: isolate">
      <g id="Group_2758" data-name="Group 2758" transform="translate(0 -0.001)">
        <g id="Group_2757" data-name="Group 2757" clip-path="url(#clip-path-18)">
          <path id="Path_923" data-name="Path 923" d="M207.994,344.72l16.126-7.808,5.483,22-16.35,7.015Z" transform="translate(-207.994 -336.913)" fill="#f6c8b6"/>
        </g>
      </g>
    </g>
    <path id="Path_924" data-name="Path 924" d="M231.086,353.081l-19.477,5.033a1.271,1.271,0,0,0-.981,1.507l0,.02,3.037,15.671a3.167,3.167,0,0,0,3.821,2.284c6.768-1.868,9.906-3.1,18.46-5.38,5.257-1.373,15.777-3.59,22.666-6.6s3.731-9.74.551-9.073c-7.557,1.545-18.953-.661-24.836-3.236a5.017,5.017,0,0,0-3.245-.228" transform="translate(534.238 437.99)" fill="#263238"/>
    <path id="Path_925" data-name="Path 925" d="M357.467,463.046s-27.3-137.095-32.881-145.263C315.475,304.438,206.138,282.7,206.138,282.7l12.843-2.3-14.852-39.345-97.37,3.841s2.04,64.313,11.938,81.559,156.369,25.165,165.865,29.071S323.143,467,323.143,467Z" transform="translate(405.504 299.322)" fill="#407bff"/>
    <g id="Group_2762" data-name="Group 2762" transform="translate(512.264 540.379)" opacity="0.4" style="mix-blend-mode: normal;isolation: isolate">
      <g id="Group_2761" data-name="Group 2761" transform="translate(-0.001 0)">
        <g id="Group_2760" data-name="Group 2760" clip-path="url(#clip-path-19)">
          <path id="Path_926" data-name="Path 926" d="M357.467,463.046s-27.3-137.095-32.881-145.263C315.475,304.438,206.138,282.7,206.138,282.7l12.843-2.3-14.852-39.345-97.37,3.841s2.04,64.313,11.938,81.559,156.369,25.165,165.865,29.071S323.143,467,323.143,467Z" transform="translate(-106.759 -241.057)" fill="#0073ff"/>
        </g>
      </g>
    </g>
    <path id="Path_927" data-name="Path 927" d="M206.692,362.2l38.2-9.732-2.018-17.06-41.708,11.487Z" transform="translate(522.537 416.289)" fill="#407bff"/>
    <g id="Group_2765" data-name="Group 2765" transform="translate(723.699 751.697)" opacity="0.2">
      <g id="Group_2764" data-name="Group 2764" transform="translate(0.001 0.001)">
        <g id="Group_2763" data-name="Group 2763" clip-path="url(#clip-path-20)">
          <path id="Path_928" data-name="Path 928" d="M206.692,362.2l38.2-9.732-2.018-17.06-41.708,11.487Z" transform="translate(-201.162 -335.408)" fill="#fff"/>
        </g>
      </g>
    </g>
    <path id="Path_929" data-name="Path 929" d="M136.469,243.7l-28.214-.493-.607,8.54,30.05.728Z" transform="translate(406.605 301.994)" fill="#263238"/>
    <path id="Path_930" data-name="Path 930" d="M122.457,243.424,123.7,252.3l62.977-.894-2.038-8.094Z" transform="translate(424.965 302.111)" fill="#263238"/>
    <path id="Path_931" data-name="Path 931" d="M136,245.724l.82,5.857a3.007,3.007,0,0,0,3.015,2.511l10.072-.3a2.308,2.308,0,0,0,2.287-2.672l-.82-5.857a3,3,0,0,0-3.015-2.511l-10.07.3a2.309,2.309,0,0,0-2.289,2.67" transform="translate(441.723 301.42)" fill="#fff"/>
    <path id="Path_932" data-name="Path 932" d="M112.494,315.006H205a4.589,4.589,0,0,0,4.549-4c11.416-89.494-10.388-120.516-10.388-120.516a165.417,165.417,0,0,0-25.354-5.163,326.77,326.77,0,0,0-37.641-.813,175.9,175.9,0,0,0-25.58,2.533c-4.582,1.937-9.127,21.911-4.587,84.072,1.189,16.285,1.38,30.353,1.263,38.595a5.223,5.223,0,0,0,5.236,5.29" transform="translate(402.227 228.965)" fill="#263238"/>
    <path id="Path_933" data-name="Path 933" d="M140.765,201.218h17.808l1.362,21.271-9.566,6.2-9.6-4.744Z" transform="translate(447.662 249.934)" fill="#263238"/>
    <g id="Group_2768" data-name="Group 2768" transform="translate(506.348 413.271)" opacity="0.2" style="mix-blend-mode: normal;isolation: isolate">
      <g id="Group_2767" data-name="Group 2767" transform="translate(-0.001 -0.001)">
        <g id="Group_2766" data-name="Group 2766" clip-path="url(#clip-path-21)">
          <path id="Path_934" data-name="Path 934" d="M209.542,311.014A4.572,4.572,0,0,1,205,315H112.5a5.229,5.229,0,0,1-5.241-5.286c.112-8.242-.067-22.307-1.254-38.59q-.974-13.4-1.411-24.278c-.762-17.582-.538-30.46.224-39.688,1.12-13.483,3.427-19.1,5.756-20.113a178.569,178.569,0,0,1,25.6-2.531,329.632,329.632,0,0,1,37.627.806A168.5,168.5,0,0,1,199.15,190.5s21.815,31.02,10.392,120.519" transform="translate(-104.119 -184.305)" fill="#fff"/>
        </g>
      </g>
    </g>
    <path id="Path_935" data-name="Path 935" d="M118.8,203.673l29.887,10.188L149.9,205.3c-2.921-5.107-3.655-8.33-1.194-14.262l-19.949-22.919c.538,11.747-1.595,27.79-9.958,35.558" transform="translate(420.43 208.896)" fill="#ffd7c8"/>
    <path id="Path_936" data-name="Path 936" d="M127.24,193.954l5.857,2.43,5.125,3.218s6.82,39.1,4.909,72.1l5.738,4.712,6.058-4.871s-7.521-60.613-10.229-72.428l1.174-2.831,2.764-5.875-5.1-2.659-8.074,1.765h-5.646Z" transform="translate(430.895 233.238)" fill="#fff"/>
    <g id="Group_2771" data-name="Group 2771" transform="translate(556.068 386.355)" opacity="0.2" style="mix-blend-mode: normal;isolation: isolate">
      <g id="Group_2770" data-name="Group 2770" transform="translate(0 0)">
        <g id="Group_2769" data-name="Group 2769" clip-path="url(#clip-path-22)">
          <path id="Path_937" data-name="Path 937" d="M127.565,172.288l11.8,13.57a39.919,39.919,0,0,0-2.137,6.435c-4.992-1.494-11.156-8.15-10.905-13.568a17.836,17.836,0,0,1,1.241-6.437" transform="translate(-126.317 -172.286)"/>
        </g>
      </g>
    </g>
    <path id="Path_938" data-name="Path 938" d="M123.076,181.569A141.649,141.649,0,0,0,150,195.558s1.816-6.793,0-12.7l13.2,6.589s1.093,10.247-1.94,15.561l-9.685-7.086-10.883,8.86s-20.614-7.953-23.84-18.744Z" transform="translate(418.014 225.576)" fill="#263238"/>
    <g id="Group_2774" data-name="Group 2774" transform="translate(506.348 435.875)" opacity="0.2" style="mix-blend-mode: normal;isolation: isolate">
      <g id="Group_2773" data-name="Group 2773" transform="translate(-0.001 0)">
        <g id="Group_2772" data-name="Group 2772" clip-path="url(#clip-path-23)">
          <path id="Path_939" data-name="Path 939" d="M206.069,245.227l-30.592,24.608c-43.854,9.765-63.138-17.582-70.887-35.5-.762-17.582-.538-30.46.224-39.688,10.527-.493,23.629-.493,27.168,2.217,6.159,4.726,27.616,37.86,30.819,40.279,3.225,2.441,43.269,8.083,43.269,8.083" transform="translate(-104.119 -194.397)"/>
        </g>
      </g>
    </g>
    <path id="Path_940" data-name="Path 940" d="M158.759,219.731l16.057-5.794-1.964,21.512s-14.74,1.879-16.552-5.875Z" transform="translate(466.922 265.701)" fill="#ffd7c8"/>
    <path id="Path_941" data-name="Path 941" d="M178.955,218.289,176.505,236l-12.816-.546,1.966-21.512Z" transform="translate(476.082 265.701)" fill="#ffd7c8"/>
    <path id="Path_942" data-name="Path 942" d="M128.457,197.155l3.628,6.907q1.885,3.517,3.888,6.961c2.6,4.621,5.333,9.122,8.157,13.391a87.482,87.482,0,0,0,8.847,11.49,28.793,28.793,0,0,0,4.193,3.821c.374.3.448.284.564.392a6.721,6.721,0,0,0,.759.356c.329.13.786.242,1.174.381l1.429.349a77.528,77.528,0,0,0,14.594,1.295c5.275.1,10.677-.1,16.135-.329,10.883-.56,22.05-1.422,33.02-2.4l2.659,12.356a269.548,269.548,0,0,1-33.464,8.571c-5.7,1.118-11.488,1.928-17.436,2.56a93.761,93.761,0,0,1-19.031.112c-.909-.128-1.781-.242-2.715-.417-.972-.213-1.89-.385-2.907-.663a32.111,32.111,0,0,1-3.2-1.068,29.675,29.675,0,0,1-3.189-1.51,49.613,49.613,0,0,1-9.087-6.484,98.109,98.109,0,0,1-12.787-14.285,167.787,167.787,0,0,1-9.965-15.008q-2.231-3.85-4.309-7.761c-1.422-2.643-2.69-5.154-4.025-8.1Z" transform="translate(403.805 244.896)" fill="#ffd7c8"/>
    <path id="Path_943" data-name="Path 943" d="M112.888,185.53c-28.9,10.417,8.578,82.394,24.335,90.462s42.389,4.645,42.389,4.645l1.87-25.009s-13.8-1.673-17.925-2.659c-6.549-1.568-19.822-30.554-28.742-46.31s-21.927-21.129-21.927-21.129" transform="translate(399.922 230.484)" fill="#263238"/>
    <g id="Group_2777" data-name="Group 2777" transform="translate(502.178 416.014)" opacity="0.2" style="mix-blend-mode: normal;isolation: isolate">
      <g id="Group_2776" data-name="Group 2776" transform="translate(0 0.001)">
        <g id="Group_2775" data-name="Group 2775" clip-path="url(#clip-path-24)">
          <path id="Path_944" data-name="Path 944" d="M112.888,185.53c-28.9,10.417,8.578,82.394,24.335,90.462s42.389,4.645,42.389,4.645l1.87-25.009s-13.8-1.673-17.925-2.659c-6.549-1.568-19.822-30.554-28.742-46.31s-21.927-21.129-21.927-21.129" transform="translate(-102.256 -185.53)" fill="#fff"/>
        </g>
      </g>
    </g>
    <path id="Path_945" data-name="Path 945" d="M137.273,216.037l-2.345,29.047,8.283-1.545,2.184-25.951Z" transform="translate(440.426 268.305)" fill="#263238"/>
    <path id="Path_946" data-name="Path 946" d="M153.1,159.51c1.151,6.7-1.749,19.754-10.146,14.245s8.168-25.763,10.146-14.245" transform="translate(447.447 193.906)" fill="#263238"/>
    <path id="Path_947" data-name="Path 947" d="M126.915,169.087c-3.23,16.383-5.955,25.817.058,36.156,9.046,15.548,30.978,13.183,39.059-1.953,7.275-13.622,11.333-38.127-2.842-48.532-13.967-10.251-33.045-2.056-36.275,14.33" transform="translate(426.145 186.73)" fill="#ffd7c8"/>
    <path id="Path_948" data-name="Path 948" d="M123.711,151.047l18.567-.851.49,10.657c-.352-.2-.748-.392-1.077-.6,0,0-1.18,15.561-10.059,20.885-12.043-9.183-15.566-24.191-7.922-30.095" transform="translate(421.514 186.682)" fill="#263238"/>
    <path id="Path_949" data-name="Path 949" d="M120.629,168.393a15.668,15.668,0,0,0,5.257,10.876c4.186,3.648,8.71.477,9.584-4.724.786-4.681-.443-12.218-5.626-13.868-5.1-1.626-9.447,2.582-9.214,7.716" transform="translate(422.688 199.234)" fill="#f6c8b6"/>
    <path id="Path_950" data-name="Path 950" d="M135.485,164.539c-.345,1.315.076,2.555.938,2.771s1.839-.672,2.184-1.987-.076-2.553-.938-2.771-1.839.674-2.184,1.987" transform="translate(440.967 201.959)" fill="#263238"/>
    <path id="Path_951" data-name="Path 951" d="M142.14,166.212c-.343,1.315.076,2.556.938,2.771s1.841-.672,2.184-1.987-.076-2.553-.938-2.771-1.839.672-2.184,1.987" transform="translate(449.219 204.033)" fill="#263238"/>
    <path id="Path_952" data-name="Path 952" d="M141.53,164.854s1.165,8.07,3.57,12.448c-2.84,1.474-6.547-.517-6.547-.517Z" transform="translate(444.918 204.854)" fill="#f6c8b6"/>
    <path id="Path_953" data-name="Path 953" d="M138.322,175.343a13.414,13.414,0,0,0,1.687.544.4.4,0,0,0,.488-.289.393.393,0,0,0-.284-.482,10.638,10.638,0,0,1-7.454-6.211.4.4,0,0,0-.759.26,11.067,11.067,0,0,0,6.323,6.177" transform="translate(436.768 209.545)" fill="#263238"/>
    <path id="Path_954" data-name="Path 954" d="M134.2,162.547a.8.8,0,0,0,.8-.119,6.434,6.434,0,0,1,5.637-1.328.81.81,0,0,0,1.015-.508.79.79,0,0,0-.5-1,8,8,0,0,0-7.14,1.6.79.79,0,0,0,.193,1.36" transform="translate(438.908 198.002)" fill="#263238"/>
    <path id="Path_955" data-name="Path 955" d="M148,167.241a.806.806,0,0,0,1.089-.9,7.866,7.866,0,0,0-4.43-5.743.807.807,0,0,0-1.039.452.788.788,0,0,0,.439,1.028,6.131,6.131,0,0,1,3.46,4.585.788.788,0,0,0,.482.578" transform="translate(451.125 199.51)" fill="#263238"/>
    <path id="Path_956" data-name="Path 956" d="M136.1,171.322a6.875,6.875,0,0,0,1.124.786,7.416,7.416,0,0,0,7.172.3c4.623-2.271,6.072-15.394,19.206-8.717a7.693,7.693,0,0,1,7.882,2.786c3.384,4.143,1.046,19.27,8.267,17.179s5.96-4.32,5.96-4.32-2.02,1.279-3.221.267c0,0,3.783-3.142,1.964-7.537,0,0-1.754,2.069-2.927,1.662,0,0,2.186-7.725-1.989-18.16s-29.8-8.1-29.8-8.1-3.234-5.4-14.807-1.633-16.858,17.709-15.024,23.792" transform="translate(421.367 179.611)" fill="#263238"/>
    <path id="Path_957" data-name="Path 957" d="M251.683,226.242,250.03,220H182.106l-31.278,3.122-1.192,3.124Z" transform="translate(458.66 273.211)" fill="#263238"/>
    <g id="Group_2780" data-name="Group 2780" transform="translate(608.299 493.207)" opacity="0.5" style="mix-blend-mode: normal;isolation: isolate">
      <g id="Group_2779" data-name="Group 2779" transform="translate(-0.001 -0.001)">
        <g id="Group_2778" data-name="Group 2778" clip-path="url(#clip-path-25)">
          <path id="Path_958" data-name="Path 958" d="M251.683,226.242,250.03,220H182.106l-31.278,3.122-1.192,3.124Z" transform="translate(-149.638 -219.995)" fill="#fff"/>
        </g>
      </g>
    </g>
    <g id="Group_2783" data-name="Group 2783" transform="translate(640.766 493.207)" opacity="0.2" style="mix-blend-mode: normal;isolation: isolate">
      <g id="Group_2782" data-name="Group 2782" transform="translate(0.001 -0.001)">
        <g id="Group_2781" data-name="Group 2781" clip-path="url(#clip-path-26)">
          <path id="Path_959" data-name="Path 959" d="M164.134,220v6.247h69.577L232.058,220Z" transform="translate(-164.134 -219.995)"/>
        </g>
      </g>
    </g>
    <path id="Path_960" data-name="Path 960" d="M174.407,246.823a5.35,5.35,0,0,0,5.393,5.98H283.851a6.683,6.683,0,0,0,6.515-5.98l6.182-66.613a5.728,5.728,0,0,0-.134-1.944,5.314,5.314,0,0,0-5.259-4.036H187.1a6.682,6.682,0,0,0-6.515,5.98Z" transform="translate(489.336 216.477)" fill="#263238"/>
    <g id="Group_2786" data-name="Group 2786" transform="translate(663.719 390.705)" opacity="0.5" style="mix-blend-mode: normal;isolation: isolate">
      <g id="Group_2785" data-name="Group 2785" transform="translate(0 0.001)">
        <g id="Group_2784" data-name="Group 2784" clip-path="url(#clip-path-27)">
          <path id="Path_961" data-name="Path 961" d="M174.407,246.823a5.35,5.35,0,0,0,5.393,5.98H283.851a6.683,6.683,0,0,0,6.515-5.98l6.182-66.613a5.728,5.728,0,0,0-.134-1.944,5.314,5.314,0,0,0-5.259-4.036H187.1a6.682,6.682,0,0,0-6.515,5.98Z" transform="translate(-174.383 -174.23)" fill="#fff"/>
        </g>
      </g>
    </g>
    <g id="Group_2789" data-name="Group 2789" transform="translate(669.344 394.746)" opacity="0.1" style="mix-blend-mode: normal;isolation: isolate">
      <g id="Group_2788" data-name="Group 2788" transform="translate(0 -0.001)">
        <g id="Group_2787" data-name="Group 2787" clip-path="url(#clip-path-28)">
          <path id="Path_962" data-name="Path 962" d="M177.056,250.568H280.738a6.686,6.686,0,0,0,6.518-5.98l6.179-66.613a5.654,5.654,0,0,0-.134-1.942H189.619a6.707,6.707,0,0,0-6.515,5.978l-6.182,66.613a5.724,5.724,0,0,0,.134,1.944" transform="translate(-176.893 -176.033)"/>
        </g>
      </g>
    </g>
    <path id="Path_963" data-name="Path 963" d="M236.463,191.07H214.937l5.738,61.628-34.039,5.111V262.1h71.691v-4.291L243.641,252.7Z" transform="translate(504.527 237.354)" fill="#263238"/>
    <g id="Group_2792" data-name="Group 2792" transform="translate(691.164 428.422)" opacity="0.5" style="mix-blend-mode: normal;isolation: isolate">
      <g id="Group_2791" data-name="Group 2791" transform="translate(0 0)">
        <g id="Group_2790" data-name="Group 2790" clip-path="url(#clip-path-29)">
          <path id="Path_964" data-name="Path 964" d="M236.463,191.07H214.937l5.738,61.628-34.039,5.111V262.1h71.691v-4.291L243.641,252.7Z" transform="translate(-186.636 -191.07)" fill="#fff"/>
        </g>
      </g>
    </g>
    <g id="Group_2795" data-name="Group 2795" transform="translate(719.465 428.422)" opacity="0.2" style="mix-blend-mode: normal;isolation: isolate">
      <g id="Group_2794" data-name="Group 2794" transform="translate(0.001 0)">
        <g id="Group_2793" data-name="Group 2793" clip-path="url(#clip-path-30)">
          <path id="Path_965" data-name="Path 965" d="M199.272,191.07l15.947,70.051,12.755-.379L220.8,191.07Z" transform="translate(-199.272 -191.07)" fill="#fff"/>
        </g>
      </g>
    </g>
    <path id="Path_966" data-name="Path 966" d="M123.66,524.34H254.008a2.563,2.563,0,0,0,2.562-2.562v-8.314a2.563,2.563,0,0,0-2.562-2.562H130.379V244.788H251.9a4.672,4.672,0,0,0,4.67-4.672V231.35H123.66a6.719,6.719,0,0,0-6.719,6.719V517.62a6.719,6.719,0,0,0,6.719,6.719" transform="translate(418.127 287.289)" fill="#263238"/>
    <g id="Group_2798" data-name="Group 2798" transform="translate(535.068 518.637)" opacity="0.4" style="mix-blend-mode: normal;isolation: isolate">
      <g id="Group_2797" data-name="Group 2797" transform="translate(0 0)">
        <g id="Group_2796" data-name="Group 2796" clip-path="url(#clip-path-31)">
          <path id="Path_967" data-name="Path 967" d="M123.66,524.34H254.008a2.563,2.563,0,0,0,2.562-2.562v-8.314a2.563,2.563,0,0,0-2.562-2.562H130.379V244.788H251.9a4.672,4.672,0,0,0,4.67-4.672V231.35H123.66a6.719,6.719,0,0,0-6.719,6.719V517.62a6.719,6.719,0,0,0,6.719,6.719" transform="translate(-116.941 -231.348)" fill="#fff"/>
        </g>
      </g>
    </g>
    <path id="Path_968" data-name="Path 968" d="M114.9,240.605H458.511a4.352,4.352,0,0,0,4.352-4.352V225.671H110.545v10.583a4.352,4.352,0,0,0,4.352,4.352" transform="translate(410.197 280.248)" fill="#407bff"/>
    <g id="Group_2801" data-name="Group 2801" transform="translate(520.742 505.92)" opacity="0.2" style="mix-blend-mode: normal;isolation: isolate">
      <g id="Group_2800" data-name="Group 2800" transform="translate(0 0.001)">
        <g id="Group_2799" data-name="Group 2799" clip-path="url(#clip-path-32)">
          <rect id="Rectangle_2837" data-name="Rectangle 2837" width="352.318" height="7.467" transform="translate(0 -0.002)"/>
        </g>
      </g>
    </g>
    <path id="Path_969" data-name="Path 969" d="M109.574,231.2H476.667a4.207,4.207,0,0,0,0-8.415H109.574a4.207,4.207,0,0,0,0,8.415" transform="translate(403.779 276.67)" fill="#407bff"/>
  </g>
</svg>
